<?xml version="1.0" standalone="no"?>
<!DOCTYPE svg PUBLIC "-//W3C//DTD SVG 20010904//EN"
 "http://www.w3.org/TR/2001/REC-SVG-20010904/DTD/svg10.dtd">
<svg version="1.0" xmlns="http://www.w3.org/2000/svg"
 width="512.000000pt" height="512.000000pt" viewBox="0 0 512.000000 512.000000"
 preserveAspectRatio="xMidYMid meet">
<metadata>
Created by potrace 1.11, written by Peter Selinger 2001-2013
</metadata>
<g transform="translate(0.000000,512.000000) scale(0.100000,-0.100000)"
fill="#000000" stroke="none">
<path d="M2756 4734 c-14 -15 -26 -34 -27 -43 0 -9 -1 -103 -2 -210 l-1 -194
32 -28 c18 -16 41 -29 53 -29 28 0 75 26 84 47 5 10 9 109 10 221 l2 203 -28
30 c-36 39 -85 40 -123 3z"/>
<path d="M4253 4376 c-72 -73 -83 -89 -83 -119 0 -50 38 -87 88 -87 34 0 47 8
110 69 87 84 103 111 91 154 -12 43 -44 67 -87 67 -32 0 -46 -9 -119 -84z"/>
<path d="M1723 4275 c-12 -8 -26 -30 -31 -48 -7 -20 -10 -247 -9 -595 l2 -564
28 -24 c38 -33 86 -32 121 2 21 22 26 37 27 78 0 28 1 286 1 574 1 401 -2 528
-12 546 -23 43 -87 59 -127 31z"/>
<path d="M3887 4054 c-1 -1 -38 -5 -82 -8 -176 -15 -359 -31 -459 -41 -30 -3
-85 -8 -123 -11 -37 -2 -84 -6 -103 -9 -19 -2 -73 -7 -120 -10 -47 -3 -97 -10
-111 -16 -30 -12 -20 2 -374 -489 -153 -212 -291 -403 -307 -425 -16 -22 -65
-89 -109 -150 -282 -392 -541 -751 -587 -814 l-54 -73 -107 106 c-117 117
-149 133 -198 101 -49 -31 -250 -243 -255 -268 -8 -42 11 -70 127 -187 l115
-115 -228 -228 c-199 -199 -235 -231 -285 -252 -230 -93 -333 -353 -226 -570
166 -338 649 -310 774 45 13 36 60 88 243 272 l227 227 120 -118 c66 -65 131
-121 144 -124 43 -10 84 18 204 141 157 161 157 155 7 306 l-110 112 422 304
c232 168 482 349 557 403 75 54 177 127 226 163 50 36 153 111 230 167 78 56
220 160 318 230 97 70 183 138 191 150 8 12 17 58 21 102 3 44 8 91 10 105 2
14 6 66 10 115 3 50 8 106 10 125 2 19 9 91 15 160 5 69 13 150 15 180 3 30 7
73 9 95 4 33 17 188 18 205 2 24 -6 43 -28 70 -25 29 -30 31 -86 28 -33 -2
-60 -4 -61 -4z m-22 -271 c-4 -48 -8 -104 -10 -123 -2 -19 -6 -71 -10 -115 -3
-44 -8 -96 -10 -115 -2 -19 -6 -66 -9 -105 -3 -38 -8 -90 -11 -115 -9 -90 -17
-186 -18 -213 -1 -26 -22 -44 -190 -165 -104 -76 -275 -199 -381 -275 -105
-76 -216 -156 -246 -178 -73 -53 -320 -231 -743 -537 -191 -139 -351 -252
-355 -252 -5 0 -25 17 -46 39 l-38 39 821 821 c798 798 821 822 821 859 -1 41
-13 63 -47 80 -61 33 -25 65 -900 -810 l-823 -823 -41 42 -42 41 96 134 c53
73 103 142 111 153 8 11 123 169 255 352 132 183 254 351 271 375 18 24 71 97
118 164 48 67 95 132 105 145 9 13 82 114 162 224 79 110 167 232 196 272 28
39 54 76 58 81 7 11 49 18 161 27 41 3 95 8 120 10 48 5 123 11 230 20 36 3
81 8 100 10 19 2 76 7 125 10 50 4 91 8 92 9 1 1 21 3 44 4 l41 3 -7 -88z
m-2259 -2179 c444 -445 415 -406 351 -466 l-29 -26 -404 404 c-222 222 -404
407 -404 411 0 7 71 83 77 83 2 0 186 -183 409 -406z m-208 -217 l122 -122
-55 -54 -56 -54 -31 29 c-48 45 -192 189 -206 206 -10 13 -4 23 39 67 28 28
54 51 57 51 4 0 62 -55 130 -123z m-243 -236 l126 -125 -53 -53 -53 -53 -27
53 c-29 59 -112 141 -174 172 -21 11 -41 21 -43 22 -4 3 91 109 96 108 1 0 59
-56 128 -124z m-261 -169 c58 -31 93 -74 111 -137 34 -111 -11 -222 -111 -277
-101 -55 -207 -39 -286 42 -91 94 -93 228 -5 325 76 84 189 102 291 47z"/>
<path d="M4303 2898 c-68 -18 -90 -89 -43 -141 l28 -31 210 -1 c207 0 211 0
235 23 14 13 27 34 29 47 7 32 -16 81 -44 96 -26 14 -364 20 -415 7z"/>
<path d="M3055 1836 c-38 -31 -42 -94 -7 -128 l23 -23 583 -2 583 -3 27 26
c29 29 35 86 13 115 -29 38 -41 39 -624 39 l-568 0 -30 -24z"/>
</g>
</svg>
